<mxfile host="app.diagrams.net" modified="2022-09-26T02:53:55.229Z" agent="5.0 (Macintosh; Intel Mac OS X 10_12_6) AppleWebKit/537.36 (KHTML, like Gecko) Chrome/103.0.0.0 Safari/537.36" etag="K9xtBhc0PVX25-3Ql73Y" version="20.3.6" type="github">
  <diagram id="kEhjHFDfJqVM96UbAz7r" name="第 1 页">
    <mxGraphModel dx="946" dy="611" grid="1" gridSize="10" guides="1" tooltips="1" connect="1" arrows="1" fold="1" page="1" pageScale="1" pageWidth="827" pageHeight="1169" math="0" shadow="0">
      <root>
        <mxCell id="0" />
        <mxCell id="1" parent="0" />
        <mxCell id="5ZyEI7wJTFy-GON2i29u-1" value="broke1(partition1)" style="rounded=1;whiteSpace=wrap;html=1;fillColor=#dae8fc;strokeColor=#6c8ebf;" vertex="1" parent="1">
          <mxGeometry x="580" y="80" width="120" height="60" as="geometry" />
        </mxCell>
        <mxCell id="5ZyEI7wJTFy-GON2i29u-2" value="broke1(partition3)" style="rounded=1;whiteSpace=wrap;html=1;fillColor=#ffe6cc;strokeColor=#d79b00;" vertex="1" parent="1">
          <mxGeometry x="580" y="340" width="120" height="60" as="geometry" />
        </mxCell>
        <mxCell id="5ZyEI7wJTFy-GON2i29u-3" value="broke1(partition2)" style="rounded=1;whiteSpace=wrap;html=1;fillColor=#d5e8d4;strokeColor=#82b366;" vertex="1" parent="1">
          <mxGeometry x="580" y="200" width="120" height="60" as="geometry" />
        </mxCell>
        <mxCell id="5ZyEI7wJTFy-GON2i29u-8" style="edgeStyle=none;rounded=0;orthogonalLoop=1;jettySize=auto;html=1;entryX=0;entryY=0.5;entryDx=0;entryDy=0;" edge="1" parent="1" source="5ZyEI7wJTFy-GON2i29u-4" target="5ZyEI7wJTFy-GON2i29u-7">
          <mxGeometry relative="1" as="geometry" />
        </mxCell>
        <mxCell id="5ZyEI7wJTFy-GON2i29u-4" value="producer" style="rounded=1;whiteSpace=wrap;html=1;fillColor=#f5f5f5;strokeColor=#666666;fontColor=#333333;" vertex="1" parent="1">
          <mxGeometry x="30" y="200" width="120" height="60" as="geometry" />
        </mxCell>
        <mxCell id="5ZyEI7wJTFy-GON2i29u-9" style="edgeStyle=none;rounded=0;orthogonalLoop=1;jettySize=auto;html=1;entryX=0;entryY=0.5;entryDx=0;entryDy=0;" edge="1" parent="1" source="5ZyEI7wJTFy-GON2i29u-7" target="5ZyEI7wJTFy-GON2i29u-1">
          <mxGeometry relative="1" as="geometry" />
        </mxCell>
        <mxCell id="5ZyEI7wJTFy-GON2i29u-7" value="metata(路由)" style="rounded=1;whiteSpace=wrap;html=1;fillColor=#dae8fc;strokeColor=#6c8ebf;" vertex="1" parent="1">
          <mxGeometry x="210" y="200" width="120" height="60" as="geometry" />
        </mxCell>
      </root>
    </mxGraphModel>
  </diagram>
</mxfile>
